<svg xmlns="http://www.w3.org/2000/svg" viewBox="0 0 512 512"><title>lamb</title><g style="isolation:isolate"><g id="Layer_1" data-name="Layer 1"><path d="M512,256c0,141.38-114.61,256-256,256S0,397.38,0,256,114.62,0,256,0,512,114.61,512,256Z" fill="#48cfad"/><path id="_11" data-name="11" d="M506.74,284.68a1726.78,1726.78,0,0,0-6-6,35.44,35.44,0,0,0-3-3,32,32,0,0,0-3-3,33.42,33.42,0,0,0-3-3,31.55,31.55,0,0,0-3-3,34.4,34.4,0,0,0-3-3,35,35,0,0,0-3-3,33.25,33.25,0,0,0-3-3,34.82,34.82,0,0,0-3-3,35,35,0,0,0-3-3,32.76,32.76,0,0,0-3-3,31.3,31.3,0,0,0-3-3,34.32,34.32,0,0,0-3-3,32.35,32.35,0,0,0-3-3,29.65,29.65,0,0,0-3-3,32.9,32.9,0,0,0-3-3,32,32,0,0,0-3-3,31.89,31.89,0,0,0-3-3,32.8,32.8,0,0,0-3-3,33,33,0,0,0-3-3,32.44,32.44,0,0,0-3-3,33,33,0,0,0-3-3,30.93,30.93,0,0,0-3-3,33.94,33.94,0,0,0-3-3,34.24,34.24,0,0,0-3-3,32.82,32.82,0,0,0-3-3,34.49,34.49,0,0,0-3-3,33.74,33.74,0,0,0-3-3,32,32,0,0,0-3-3,33.47,33.47,0,0,0-3-3,34.4,34.4,0,0,0-3-3,33,33,0,0,0-3-3,34.84,34.84,0,0,0-3-3,32.31,32.31,0,0,0-3-3,33.76,33.76,0,0,0-3-3,35.24,35.24,0,0,0-3-3,32.52,32.52,0,0,0-3-3,33,33,0,0,0-3-3,32.35,32.35,0,0,0-3-3,32.89,32.89,0,0,0-3-3,33.31,33.31,0,0,0-3-3,35.31,35.31,0,0,0-3-3,33.31,33.31,0,0,0-3-3,32.09,32.09,0,0,0-3-3A32.11,32.11,0,0,0,351.49,138a31.28,31.28,0,0,0-8-.18,31.24,31.24,0,0,0-2.64-2.58,31.76,31.76,0,0,0-3-3,33.71,33.71,0,0,0-3-3,33,33,0,0,0-3-3,32.36,32.36,0,0,0-3-3,32,32,0,0,0-19.11-10.68,31.14,31.14,0,0,0-18.89,3c-.76-.8-1.55-1.58-2.37-2.3a31.66,31.66,0,0,0-23.7-10.79,30.43,30.43,0,0,0-4.3.34c-.17,0-.31,0-.48.07a31.77,31.77,0,0,0-19.36,10.85,31.44,31.44,0,0,0-20.78-7.84A32.23,32.23,0,0,0,189,129.67,31.69,31.69,0,0,0,179,128c-17.75,0-32.14,14.75-32.14,32.93a33.82,33.82,0,0,0,1.46,9.86c-17.53.26-31.69,14.88-31.69,32.91a33.22,33.22,0,0,0,6.78,20.17,33.1,33.1,0,0,0-13.55,56.83,31.76,31.76,0,0,0,3,3,31.06,31.06,0,0,0,3,3c.63.72,1.31,1.4,2,2.07a35.57,35.57,0,0,0-5.17,18.54,35,35,0,0,0,11.6,26.26,34.5,34.5,0,0,0,3,3,36.08,36.08,0,0,0,3,3,34.38,34.38,0,0,0,3,3,32.74,32.74,0,0,0,2.78,2.8,35.43,35.43,0,0,0,11.42,30.57,34.79,34.79,0,0,0,3.11,3.09,35.71,35.71,0,0,0,3,3,33.19,33.19,0,0,0,3,3,37.47,37.47,0,0,0,3,3,34.85,34.85,0,0,0,3,3,34.33,34.33,0,0,0,3,3,34.83,34.83,0,0,0,3,3,35.56,35.56,0,0,0,3,3,32.24,32.24,0,0,0,3,3,33.92,33.92,0,0,0,3,3,36.51,36.51,0,0,0,3,3,38.5,38.5,0,0,0,3,3,37.22,37.22,0,0,0,3,3,35.44,35.44,0,0,0,3,3,35.74,35.74,0,0,0,3,3,36.84,36.84,0,0,0,3,3,36.22,36.22,0,0,0,3,3,38,38,0,0,0,3,3,36,36,0,0,0,3.12,3.11,36.24,36.24,0,0,0,3,3,34.94,34.94,0,0,0,3,3,37.53,37.53,0,0,0,3,3,35.94,35.94,0,0,0,3.11,3.11,34.81,34.81,0,0,0,3,3,32.92,32.92,0,0,0,3,3,34.85,34.85,0,0,0,3,3,32,32,0,0,0,3,3,35,35,0,0,0,3.1,3.1,33,33,0,0,0,3,3,37.09,37.09,0,0,0,3,3,33.46,33.46,0,0,0,3,3,36.38,36.38,0,0,0,3,3,36.36,36.36,0,0,0,3.1,3.1,36.73,36.73,0,0,0,3,3,33.58,33.58,0,0,0,3,3,33.72,33.72,0,0,0,3,3.06A35.23,35.23,0,0,0,259.5,488a34.82,34.82,0,0,0,3,3,34.46,34.46,0,0,0,3,3,31.34,31.34,0,0,0,3.1,3.12,36.59,36.59,0,0,0,3,3,32.71,32.71,0,0,0,3,3,33.27,33.27,0,0,0,3,3,33.93,33.93,0,0,0,3,3c.48.56,1,1.06,1.57,1.58,118.56-12,213.11-105,227.76-222.78-.08-.06-.11-.12-.19-.18A33.76,33.76,0,0,0,506.74,284.68Z" fill="#e3e2e1" style="mix-blend-mode:multiply"/><g id="_11-2" data-name="11"><g id="icon"><path d="M393,241.36a32.78,32.78,0,0,0,9.52-18.9c2.52-17.83-9.41-34.47-26.73-37.42a33,33,0,0,0,2.84-9.54c2.56-18-9.61-34.78-27.16-37.53a31.42,31.42,0,0,0-14.84,1.31,32.78,32.78,0,0,0-27-26.82,31.24,31.24,0,0,0-19.25,3.18,31.56,31.56,0,0,0-49.86-2,31.44,31.44,0,0,0-20.78-7.84A32.23,32.23,0,0,0,189,129.67,31.69,31.69,0,0,0,179,128c-17.75,0-32.14,14.75-32.14,32.93a33.82,33.82,0,0,0,1.46,9.86c-17.53.26-31.69,14.88-31.69,32.91a33.22,33.22,0,0,0,6.78,20.17,33.12,33.12,0,0,0-4,62.74,35.49,35.49,0,0,0-6.63,20.75c0,16,10.38,29.44,24.36,33.27a38.83,38.83,0,0,0-.84,4.08c-2.7,19,10.15,36.76,28.7,39.65a33.18,33.18,0,0,0,16.81-1.74,34.57,34.57,0,0,0,28.1,26.54,33.5,33.5,0,0,0,35-18.2A32.71,32.71,0,0,0,268,407.22c18.06,2.81,34.92-10.5,37.65-29.76,0-.13,0-.25,0-.39a34,34,0,0,0,22.57,14.16c18.54,2.88,35.76-10.18,38.46-29.18a35.42,35.42,0,0,0-.54-12.86c16.5,1.14,31.29-10.84,33.71-27.9A33.42,33.42,0,0,0,396.4,301,32.63,32.63,0,0,0,413,276.83,33.31,33.31,0,0,0,393,241.36ZM255.32,293.22a31.14,31.14,0,0,0-19.37,6.83,31.57,31.57,0,0,0-19.6-8.1c-1-18.11-15.08-32.47-32.42-32.47a32.6,32.6,0,0,0-5.39.51,31.4,31.4,0,0,0-.35-3.73c13.39-5.23,22.95-18.81,22.95-34.8a39.17,39.17,0,0,0-1.58-11c13.17-.13,24.61-7.93,30.5-19.39a33.15,33.15,0,0,0,26.4-.94,34,34,0,0,0,24.36,10.45c.8,0,1.6-.07,2.41-.13a34.77,34.77,0,0,0,24.52,16,40.1,40.1,0,0,0-.37,5.07,38,38,0,0,0,12.83,28.71,35.48,35.48,0,0,0-6,19.89,36.61,36.61,0,0,0,1,8.56,31,31,0,0,0-15.71-4.28c-13.88,0-25.7,9.22-30.37,22.2A30.87,30.87,0,0,0,255.32,293.22Z" fill="#f4f0df"/><path d="M342.76,247.67c0,42-37.68,76.07-84.12,76.07s-84.13-34.06-84.13-76.07,37.66-76.09,84.13-76.09S342.76,205.65,342.76,247.67Z" fill="#ffce54"/><path d="M270.17,256.59c.25,5.74-6.08,13.14-14.81,12.86-9.77-.31-14.17-7.11-14.24-12.86-.11-6.74,5.77-10.72,13.8-10.72S269.82,248.75,270.17,256.59Z" fill="#7f4438"/><path d="M266.26,252.67a2.79,2.79,0,1,1-2.8-2.86A2.81,2.81,0,0,1,266.26,252.67Z" fill="#f4f0df"/><path d="M253.65,278.35V268a2.27,2.27,0,0,1,2.29-2.27h0a2.27,2.27,0,0,1,2.28,2.27h0v10.39a2.27,2.27,0,0,1-2.28,2.27h0a2.28,2.28,0,0,1-2.29-2.27Z" fill="#7f4438"/><path d="M239.45,277.92a2.3,2.3,0,0,1,0-3.24h0a2.27,2.27,0,0,1,3.22,0h0s.11.11.44.37h0a11.61,11.61,0,0,0,1.49,1h0a10.68,10.68,0,0,0,5.33,1.48h0a11.38,11.38,0,0,0,4.92-1.19h0a2.29,2.29,0,0,1,3,1.09h0a2.28,2.28,0,0,1-1.09,3h0a15.93,15.93,0,0,1-6.86,1.62h0a15.6,15.6,0,0,1-10.52-4.24Z" fill="#7f4438"/><path d="M255.16,280.53a2.29,2.29,0,0,1-1.08-3h0a2.3,2.3,0,0,1,3-1.09h0a11.24,11.24,0,0,0,4.89,1.19h0a11.28,11.28,0,0,0,6.84-2.5h0a4.56,4.56,0,0,0,.43-.37h0a2.26,2.26,0,0,1,3.21,0h0a2.3,2.3,0,0,1,0,3.24h0A15.57,15.57,0,0,1,262,282.16h0a16,16,0,0,1-6.83-1.62Z" fill="#7f4438"/><path d="M224.2,230.19a9.3,9.3,0,1,0,9.11,9.3A9.19,9.19,0,0,0,224.2,230.19Z" fill="#7f4438"/><path d="M287.78,230.19a9.3,9.3,0,1,0,9.09,9.3A9.2,9.2,0,0,0,287.78,230.19Z" fill="#7f4438"/><path d="M280.43,158.86A13.79,13.79,0,0,0,272,162a14.76,14.76,0,0,0,.19-2.7,14.13,14.13,0,1,0-28.24.68,15.58,15.58,0,0,0,.26,2.28,13.62,13.62,0,0,0-8-2.32,14.43,14.43,0,0,0,.71,28.85,13.66,13.66,0,0,0,7.77-2.62,14.1,14.1,0,0,0,28.13-1,13.9,13.9,0,0,0,8.39,2.59,14.44,14.44,0,0,0-.72-28.87Z" fill="#f4f0df"/></g><path id="shadow" d="M305.69,377.46c0-.13,0-.25,0-.39a34,34,0,0,0,22.57,14.16c18.54,2.88,35.76-10.18,38.46-29.18a35.42,35.42,0,0,0-.54-12.86c16.5,1.14,31.29-10.84,33.71-27.9A33.42,33.42,0,0,0,396.4,301,32.63,32.63,0,0,0,413,276.83a33.31,33.31,0,0,0-20-35.47,32.78,32.78,0,0,0,9.52-18.9c2.52-17.83-9.41-34.47-26.73-37.42a33,33,0,0,0,2.84-9.54c2.56-18-9.61-34.78-27.16-37.53a31.42,31.42,0,0,0-14.84,1.31,32.78,32.78,0,0,0-27-26.82,31.24,31.24,0,0,0-19.25,3.18,31.84,31.84,0,0,0-25.71-13.24A30.29,30.29,0,0,0,256,103.7V402.61a31.23,31.23,0,0,0,12,4.61C286.1,410,303,396.72,305.69,377.46Z" fill="#eeece7" style="mix-blend-mode:multiply"/></g></g></g></svg>